<?xml version="1.0" encoding="utf-8"?>
<!-- Generator: Adobe Illustrator 22.1.0, SVG Export Plug-In . SVG Version: 6.00 Build 0)  -->
<svg version="1.1" id="Ebene_1" xmlns="http://www.w3.org/2000/svg" xmlns:xlink="http://www.w3.org/1999/xlink" x="0px" y="0px"
	 viewBox="0 0 500 180" style="enable-background:new 0 0 500 180;" xml:space="preserve">
<style type="text/css">
	.st0{fill:#575756;}
	.st1{fill:#F44300;}
</style>
<g>
	<g>
		<path class="st0" d="M91.245,116.678L84.592,99.68H63.17l-6.58,16.999h-6.288l21.129-53.664h5.228l21.02,53.664H91.245z
			 M82.654,94.087l-6.215-16.56c-0.804-2.096-1.633-4.667-2.486-7.713c-0.536,2.34-1.304,4.911-2.303,7.713l-6.288,16.56H82.654z"/>
		<path class="st0" d="M108.243,76.613v25.991c0,3.266,0.743,5.703,2.23,7.311c1.486,1.608,3.814,2.413,6.982,2.413
			c4.191,0,7.256-1.145,9.194-3.436c1.937-2.29,2.906-6.032,2.906-11.223V76.613h6.068v40.065h-5.008l-0.877-5.374h-0.329
			c-1.243,1.974-2.967,3.485-5.173,4.533c-2.206,1.048-4.722,1.572-7.549,1.572c-4.875,0-8.524-1.157-10.949-3.473
			c-2.425-2.315-3.637-6.019-3.637-11.113V76.613H108.243z"/>
		<path class="st0" d="M159.86,112.401c1.072,0,2.108-0.079,3.107-0.238c0.999-0.158,1.791-0.323,2.376-0.494v4.643
			c-0.658,0.317-1.627,0.578-2.906,0.786c-1.279,0.207-2.431,0.311-3.455,0.311c-7.75,0-11.625-4.082-11.625-12.246V81.329h-5.739
			v-2.924l5.739-2.522l2.559-8.554h3.509v9.285h11.625v4.716h-11.625v23.579c0,2.413,0.572,4.265,1.718,5.557
			C156.29,111.756,157.861,112.401,159.86,112.401z"/>
		<path class="st0" d="M206.359,96.609c0,6.531-1.645,11.631-4.935,15.299c-3.29,3.668-7.836,5.502-13.635,5.502
			c-3.582,0-6.763-0.841-9.541-2.522c-2.778-1.682-4.923-4.094-6.434-7.238c-1.511-3.144-2.266-6.823-2.266-11.04
			c0-6.531,1.632-11.618,4.898-15.262c3.265-3.643,7.798-5.465,13.599-5.465c5.605,0,10.059,1.864,13.361,5.593
			C204.708,85.204,206.359,90.248,206.359,96.609z M175.835,96.609c0,5.118,1.024,9.017,3.071,11.698
			c2.047,2.681,5.057,4.021,9.029,4.021c3.972,0,6.988-1.334,9.048-4.003c2.059-2.669,3.089-6.574,3.089-11.716
			c0-5.093-1.03-8.962-3.089-11.607c-2.06-2.644-5.1-3.966-9.121-3.966c-3.973,0-6.97,1.304-8.993,3.911
			C176.846,87.556,175.835,91.443,175.835,96.609z"/>
		<g>
			<path class="st1" d="M292.667,88.823c0,8.92-2.455,15.792-7.366,20.618c-4.911,4.825-11.814,7.238-20.709,7.238h-17.291V63.234
				h18.497c8.578,0,15.201,2.193,19.868,6.58C290.333,74.2,292.667,80.537,292.667,88.823z M277.679,89.334
				c0-4.898-0.969-8.53-2.906-10.894c-1.937-2.364-4.88-3.546-8.828-3.546h-4.204v29.939h3.217c4.387,0,7.604-1.273,9.651-3.82
				C276.655,98.468,277.679,94.575,277.679,89.334z"/>
		</g>
		<g>
			<path class="st1" d="M351.558,116.678h-18.936l-19.521-37.653h-0.329c0.463,5.922,0.695,10.443,0.695,13.562v24.09h-12.795
				V63.234h18.863l19.448,37.141h0.219c-0.342-5.386-0.512-9.711-0.512-12.977V63.234h12.868V116.678z"/>
		</g>
		<g>
			<path class="st1" d="M396.485,100.447c0,3.314-0.841,6.258-2.522,8.828c-1.682,2.572-4.107,4.569-7.275,5.995
				c-3.168,1.426-6.885,2.139-11.15,2.139c-3.559,0-6.544-0.25-8.956-0.749s-4.923-1.371-7.531-2.614v-12.868
				c2.754,1.413,5.617,2.517,8.591,3.308c2.973,0.792,5.703,1.188,8.189,1.188c2.144,0,3.716-0.371,4.716-1.115
				c0.999-0.743,1.499-1.7,1.499-2.87c0-0.731-0.201-1.371-0.603-1.919c-0.402-0.548-1.048-1.102-1.937-1.663
				c-0.89-0.561-3.26-1.706-7.11-3.436c-3.485-1.584-6.099-3.119-7.841-4.606c-1.743-1.486-3.034-3.193-3.875-5.118
				c-0.841-1.925-1.261-4.204-1.261-6.836c0-4.922,1.791-8.761,5.374-11.515c3.582-2.754,8.505-4.131,14.769-4.131
				c5.532,0,11.174,1.279,16.925,3.838l-4.423,11.15c-4.996-2.29-9.31-3.436-12.941-3.436c-1.877,0-3.241,0.329-4.094,0.987
				c-0.853,0.658-1.279,1.475-1.279,2.449c0,1.048,0.542,1.987,1.627,2.815c1.084,0.829,4.027,2.34,8.828,4.533
				c4.606,2.072,7.805,4.295,9.596,6.671C395.59,93.849,396.485,96.841,396.485,100.447z"/>
		</g>
	</g>
	<g>
		<path class="st1" d="M444.706,139.461H227.564c-2.752,0-4.991-2.239-4.991-4.991V45.53c0-2.752,2.239-4.991,4.991-4.991h217.143
			c2.752,0,4.991,2.239,4.991,4.991v88.939C449.698,137.222,447.459,139.461,444.706,139.461z M228.396,133.638h215.479V46.362
			H228.396V133.638z"/>
	</g>
	<g>
		<g>
			<path class="st1" d="M401.302,52.98h5.127v74.611h-5.127V52.98z"/>
		</g>
	</g>
</g>
</svg>
